<?xml version="1.0" encoding="UTF-8"?>
<svg width="99px" height="99px" viewBox="0 0 99 99" version="1.1" xmlns="http://www.w3.org/2000/svg" xmlns:xlink="http://www.w3.org/1999/xlink">
    <!-- Generator: Sketch 49 (51002) - http://www.bohemiancoding.com/sketch -->
    <title>coffee b</title>
    <desc>Created with Sketch.</desc>
    <defs>
        <filter x="-11.1%" y="-10.8%" width="145.7%" height="144.6%" filterUnits="objectBoundingBox" id="filter-1">
            <feOffset dx="9" dy="9" in="SourceAlpha" result="shadowOffsetOuter1"></feOffset>
            <feGaussianBlur stdDeviation="4.5" in="shadowOffsetOuter1" result="shadowBlurOuter1"></feGaussianBlur>
            <feColorMatrix values="0 0 0 0 0   0 0 0 0 0   0 0 0 0 0  0 0 0 0.5 0" type="matrix" in="shadowBlurOuter1" result="shadowMatrixOuter1"></feColorMatrix>
            <feMerge>
                <feMergeNode in="shadowMatrixOuter1"></feMergeNode>
                <feMergeNode in="SourceGraphic"></feMergeNode>
            </feMerge>
        </filter>
        <circle id="path-2" cx="42" cy="44" r="39"></circle>
        <filter x="-0.3%" y="-0.3%" width="100.6%" height="100.6%" filterUnits="objectBoundingBox" id="filter-3">
            <feMorphology radius="0.25" operator="dilate" in="SourceAlpha" result="shadowSpreadOuter1"></feMorphology>
            <feOffset dx="0" dy="0" in="shadowSpreadOuter1" result="shadowOffsetOuter1"></feOffset>
            <feComposite in="shadowOffsetOuter1" in2="SourceAlpha" operator="out" result="shadowOffsetOuter1"></feComposite>
            <feColorMatrix values="0 0 0 0 0   0 0 0 0 0   0 0 0 0 0  0 0 0 0.5 0" type="matrix" in="shadowOffsetOuter1"></feColorMatrix>
        </filter>
        <path d="M9.22373655,0.422487625 L9.39628277,0.422480916 C11.3292831,0.422480916 12.8962895,1.9894873 12.8962895,3.92248763 C12.8962895,3.93181212 12.8962522,3.94113658 12.8961777,3.95046078 C12.8194811,13.5464412 12.8418393,18.4014685 12.9632523,18.5155426 C13.0662289,18.6122948 11.1947145,18.267937 9.34584,18.2431136 C7.54586946,18.2189468 5.68917596,18.29237 5.68917596,18.29237 C5.70069953,13.4996041 5.7122231,8.70683825 5.72374667,3.91407237 L5.72374667,3.91407237 C5.72838639,1.98436687 7.29402547,0.422487625 9.22373655,0.422487625 Z" id="path-4"></path>
    </defs>
    <g id="Page-1" stroke="none" stroke-width="1" fill="none" fill-rule="evenodd">
        <g id="Twin-Peaks-Quote-Machine-I" transform="translate(-508.000000, -465.000000)">
            <g id="coffee-b" filter="url(#filter-1)" transform="translate(507.000000, 463.000000)">
                <g id="Oval">
                    <use fill="black" fill-opacity="1" filter="url(#filter-3)" xlink:href="#path-2"></use>
                    <use stroke="#0E0E0E" stroke-width="0.5" fill="#FFFFFF" fill-rule="evenodd" xlink:href="#path-2"></use>
                </g>
                <circle id="Oval" stroke="#1C1914" stroke-width="0.5" fill="#1C1914" cx="42" cy="44" r="34"></circle>
                <g id="Rectangle-4" transform="translate(9.328246, 9.477560) rotate(-45.000000) translate(-9.328246, -9.477560) ">
                    <use fill="#FFFFFF" fill-rule="evenodd" xlink:href="#path-4"></use>
                    <path stroke="#1C1914" stroke-width="0.5" d="M5.93979948,18.033344 C5.95885051,18.0327162 5.97871317,18.0320692 5.99936882,18.0314046 C6.25290168,18.0232467 6.53458404,18.0154694 6.83695757,18.0087412 C7.7011626,17.9895114 8.55837013,17.9825184 9.34919625,17.9931361 C9.38112344,17.9935856 9.38112344,17.9935856 9.41304494,17.9941173 C10.0811843,18.0056689 10.7796849,18.0560212 11.5659161,18.1385397 C11.856435,18.169031 12.6129115,18.2565375 12.6305349,18.2584548 C12.6555604,18.2611775 12.6789212,18.2636595 12.7006895,18.2659064 C12.5761219,16.9871577 12.575537,12.7877563 12.6461857,3.9484627 C12.6462722,3.9354753 12.6462722,3.9354753 12.6462895,3.92248763 C12.6462895,2.12755848 11.1912119,0.672480916 9.39629249,0.672480916 L9.22374627,0.672487625 C7.43186198,0.672487625 5.97805425,2.12280406 5.97374594,3.91467346 C5.96510327,7.50924787 5.96510327,7.50924787 5.95646059,11.1038223 C5.94803117,14.6097018 5.94782318,14.6962082 5.93979948,18.033344 Z M12.7111789,18.5444692 C12.7163373,18.596428 12.7409402,18.6497028 12.7920678,18.69774 C12.7751013,18.681799 12.7593727,18.6422077 12.7448358,18.5774507 Z"></path>
                </g>
            </g>
        </g>
    </g>
</svg>